<mxfile host="app.diagrams.net" agent="Mozilla/5.0 (Windows NT 10.0; Win64; x64) AppleWebKit/537.36 (KHTML, like Gecko) Chrome/129.0.0.0 Safari/537.36" version="24.7.17">
  <diagram name="Page-1" id="hzyeYDchGsmD2FmUyaXM">
    <mxGraphModel dx="3317" dy="1296" grid="1" gridSize="10" guides="0" tooltips="1" connect="1" arrows="1" fold="1" page="1" pageScale="1" pageWidth="850" pageHeight="1100" math="0" shadow="0">
      <root>
        <mxCell id="0" />
        <mxCell id="1" parent="0" />
        <mxCell id="gzjGTb-9zkBEpq118PxR-49" value="&lt;font style=&quot;font-size: 24px;&quot;&gt;Graphics Subsystem&lt;/font&gt;" style="rounded=0;whiteSpace=wrap;html=1;direction=south;verticalAlign=top;fontStyle=1;fillColor=#f5f5f5;fontColor=#333333;strokeColor=#666666;strokeWidth=2;" parent="1" vertex="1">
          <mxGeometry x="340" y="350" width="690" height="510" as="geometry" />
        </mxCell>
        <mxCell id="OuJlT18xT2WxrdzGmY0F-120" value="" style="whiteSpace=wrap;html=1;aspect=fixed;strokeWidth=0;fillColor=none;" vertex="1" parent="1">
          <mxGeometry x="850" y="590" width="140" height="140" as="geometry" />
        </mxCell>
        <mxCell id="OuJlT18xT2WxrdzGmY0F-112" style="edgeStyle=orthogonalEdgeStyle;rounded=0;orthogonalLoop=1;jettySize=auto;html=1;entryX=0;entryY=0.5;entryDx=0;entryDy=0;exitX=1;exitY=0.5;exitDx=0;exitDy=0;" edge="1" parent="1" target="OuJlT18xT2WxrdzGmY0F-116" source="OuJlT18xT2WxrdzGmY0F-27">
          <mxGeometry relative="1" as="geometry">
            <mxPoint x="780" y="440" as="sourcePoint" />
            <mxPoint x="810" y="440" as="targetPoint" />
          </mxGeometry>
        </mxCell>
        <mxCell id="OuJlT18xT2WxrdzGmY0F-111" value="Render Output" style="rounded=0;whiteSpace=wrap;html=1;fontSize=16;verticalAlign=bottom;" vertex="1" parent="1">
          <mxGeometry x="380" y="660" width="140" height="160" as="geometry" />
        </mxCell>
        <mxCell id="OuJlT18xT2WxrdzGmY0F-70" value="&lt;font style=&quot;font-size: 16px;&quot;&gt;Vertex&lt;/font&gt;&lt;div style=&quot;font-size: 16px;&quot;&gt;&lt;font style=&quot;font-size: 16px;&quot;&gt;Shader&lt;/font&gt;&lt;/div&gt;" style="verticalLabelPosition=middle;verticalAlign=middle;html=1;shape=mxgraph.basic.polygon;polyCoords=[[0.36,0],[1,0],[1,0.25],[1,0.75],[1,1],[0,1],[0,0.43],[0.36,0.43]];polyline=0;labelPosition=center;align=center;horizontal=1;spacingLeft=-140;spacingTop=19;fontSize=16;" vertex="1" parent="1">
          <mxGeometry x="550" y="400" width="220" height="210" as="geometry" />
        </mxCell>
        <mxCell id="OuJlT18xT2WxrdzGmY0F-50" value="Rasterizer" style="verticalLabelPosition=middle;verticalAlign=bottom;html=1;shape=mxgraph.basic.polygon;polyCoords=[[0.52,0],[1,0],[1,0.25],[1,0.75],[1,1],[0,1],[0,0.36],[0.52,0.36]];polyline=0;labelPosition=center;align=center;fontSize=16;fontStyle=0;spacingRight=-110;spacing=4;" vertex="1" parent="1">
          <mxGeometry x="700" y="570" width="290" height="250" as="geometry" />
        </mxCell>
        <mxCell id="gzjGTb-9zkBEpq118PxR-14" style="edgeStyle=orthogonalEdgeStyle;rounded=0;orthogonalLoop=1;jettySize=auto;html=1;entryX=0;entryY=0.273;entryDx=0;entryDy=0;strokeWidth=2;startArrow=classic;startFill=1;entryPerimeter=0;" parent="1" source="gzjGTb-9zkBEpq118PxR-1" target="gzjGTb-9zkBEpq118PxR-13" edge="1">
          <mxGeometry relative="1" as="geometry" />
        </mxCell>
        <mxCell id="gzjGTb-9zkBEpq118PxR-1" value="&lt;font style=&quot;font-size: 24px;&quot;&gt;Ethernet Subsystem&lt;/font&gt;" style="rounded=0;whiteSpace=wrap;html=1;horizontal=1;verticalAlign=top;strokeWidth=2;fontSize=24;fontStyle=0;fillColor=#f5f5f5;fontColor=#333333;strokeColor=#666666;" parent="1" vertex="1">
          <mxGeometry x="-300" y="320" width="350" height="120" as="geometry" />
        </mxCell>
        <mxCell id="gzjGTb-9zkBEpq118PxR-11" style="edgeStyle=orthogonalEdgeStyle;rounded=0;orthogonalLoop=1;jettySize=auto;html=1;entryX=0;entryY=0.5;entryDx=0;entryDy=0;" parent="1" source="gzjGTb-9zkBEpq118PxR-2" target="gzjGTb-9zkBEpq118PxR-4" edge="1">
          <mxGeometry relative="1" as="geometry" />
        </mxCell>
        <mxCell id="gzjGTb-9zkBEpq118PxR-2" value="&lt;font style=&quot;font-size: 16px;&quot;&gt;UDP&lt;/font&gt;&lt;div style=&quot;font-size: 16px;&quot;&gt;&lt;font style=&quot;font-size: 16px;&quot;&gt;Ethernet&lt;/font&gt;&lt;/div&gt;" style="rounded=0;whiteSpace=wrap;html=1;fontSize=16;" parent="1" vertex="1">
          <mxGeometry x="-280" y="370" width="100" height="50" as="geometry" />
        </mxCell>
        <mxCell id="gzjGTb-9zkBEpq118PxR-6" value="AXI&lt;div&gt;MM2S&lt;/div&gt;" style="rounded=0;whiteSpace=wrap;html=1;fontSize=16;" parent="1" vertex="1">
          <mxGeometry x="-70" y="370" width="100" height="50" as="geometry" />
        </mxCell>
        <mxCell id="gzjGTb-9zkBEpq118PxR-8" value="" style="group" parent="1" vertex="1" connectable="0">
          <mxGeometry x="-155" y="380" width="60" height="30" as="geometry" />
        </mxCell>
        <mxCell id="OuJlT18xT2WxrdzGmY0F-5" value="" style="group" vertex="1" connectable="0" parent="gzjGTb-9zkBEpq118PxR-8">
          <mxGeometry width="60" height="30" as="geometry" />
        </mxCell>
        <mxCell id="gzjGTb-9zkBEpq118PxR-3" value="" style="rounded=0;whiteSpace=wrap;html=1;" parent="OuJlT18xT2WxrdzGmY0F-5" vertex="1">
          <mxGeometry x="40" width="20" height="30" as="geometry" />
        </mxCell>
        <mxCell id="gzjGTb-9zkBEpq118PxR-4" value="" style="rounded=0;whiteSpace=wrap;html=1;" parent="OuJlT18xT2WxrdzGmY0F-5" vertex="1">
          <mxGeometry width="20" height="30" as="geometry" />
        </mxCell>
        <mxCell id="gzjGTb-9zkBEpq118PxR-5" value="" style="rounded=0;whiteSpace=wrap;html=1;" parent="OuJlT18xT2WxrdzGmY0F-5" vertex="1">
          <mxGeometry x="20" width="20" height="30" as="geometry" />
        </mxCell>
        <mxCell id="gzjGTb-9zkBEpq118PxR-12" style="edgeStyle=orthogonalEdgeStyle;rounded=0;orthogonalLoop=1;jettySize=auto;html=1;entryX=0;entryY=0.5;entryDx=0;entryDy=0;" parent="1" source="gzjGTb-9zkBEpq118PxR-3" target="gzjGTb-9zkBEpq118PxR-6" edge="1">
          <mxGeometry relative="1" as="geometry" />
        </mxCell>
        <mxCell id="gzjGTb-9zkBEpq118PxR-13" value="&lt;font style=&quot;font-size: 24px;&quot;&gt;Peripheral&lt;/font&gt;&lt;div&gt;&lt;font style=&quot;font-size: 24px;&quot;&gt;Intercon&lt;/font&gt;&lt;/div&gt;" style="rounded=0;whiteSpace=wrap;html=1;horizontal=1;verticalAlign=middle;strokeWidth=2;fontSize=24;fontStyle=0;fillColor=#f5f5f5;fontColor=#333333;strokeColor=#666666;" parent="1" vertex="1">
          <mxGeometry x="130" y="320" width="130" height="220" as="geometry" />
        </mxCell>
        <mxCell id="gzjGTb-9zkBEpq118PxR-24" style="edgeStyle=orthogonalEdgeStyle;rounded=0;orthogonalLoop=1;jettySize=auto;html=1;entryX=0;entryY=0.5;entryDx=0;entryDy=0;strokeWidth=2;startArrow=classic;startFill=1;" parent="1" source="gzjGTb-9zkBEpq118PxR-15" target="gzjGTb-9zkBEpq118PxR-13" edge="1">
          <mxGeometry relative="1" as="geometry" />
        </mxCell>
        <mxCell id="gzjGTb-9zkBEpq118PxR-45" style="edgeStyle=orthogonalEdgeStyle;rounded=0;orthogonalLoop=1;jettySize=auto;html=1;entryX=0;entryY=0.25;entryDx=0;entryDy=0;strokeWidth=2;startArrow=classic;startFill=1;" parent="1" source="gzjGTb-9zkBEpq118PxR-15" target="gzjGTb-9zkBEpq118PxR-38" edge="1">
          <mxGeometry relative="1" as="geometry" />
        </mxCell>
        <mxCell id="gzjGTb-9zkBEpq118PxR-15" value="&lt;font style=&quot;font-size: 24px;&quot;&gt;Video Subsystem&lt;/font&gt;" style="rounded=0;whiteSpace=wrap;html=1;horizontal=1;verticalAlign=top;strokeWidth=2;fontSize=24;fontStyle=0;fillColor=#f5f5f5;fontColor=#333333;strokeColor=#666666;" parent="1" vertex="1">
          <mxGeometry x="-300" y="470" width="350" height="120" as="geometry" />
        </mxCell>
        <mxCell id="gzjGTb-9zkBEpq118PxR-17" value="Video&lt;div&gt;Out&lt;/div&gt;" style="rounded=0;whiteSpace=wrap;html=1;fontSize=16;" parent="1" vertex="1">
          <mxGeometry x="-70" y="520" width="100" height="50" as="geometry" />
        </mxCell>
        <mxCell id="gzjGTb-9zkBEpq118PxR-18" value="" style="group" parent="1" vertex="1" connectable="0">
          <mxGeometry x="-155" y="530" width="100" height="40" as="geometry" />
        </mxCell>
        <mxCell id="gzjGTb-9zkBEpq118PxR-19" value="" style="rounded=0;whiteSpace=wrap;html=1;" parent="gzjGTb-9zkBEpq118PxR-18" vertex="1">
          <mxGeometry x="40" width="20" height="30" as="geometry" />
        </mxCell>
        <mxCell id="gzjGTb-9zkBEpq118PxR-20" value="" style="rounded=0;whiteSpace=wrap;html=1;" parent="gzjGTb-9zkBEpq118PxR-18" vertex="1">
          <mxGeometry width="20" height="30" as="geometry" />
        </mxCell>
        <mxCell id="gzjGTb-9zkBEpq118PxR-21" value="" style="rounded=0;whiteSpace=wrap;html=1;" parent="gzjGTb-9zkBEpq118PxR-18" vertex="1">
          <mxGeometry x="20" width="20" height="30" as="geometry" />
        </mxCell>
        <mxCell id="gzjGTb-9zkBEpq118PxR-23" style="edgeStyle=orthogonalEdgeStyle;rounded=0;orthogonalLoop=1;jettySize=auto;html=1;entryX=0;entryY=0.5;entryDx=0;entryDy=0;" parent="1" source="gzjGTb-9zkBEpq118PxR-19" target="gzjGTb-9zkBEpq118PxR-17" edge="1">
          <mxGeometry relative="1" as="geometry" />
        </mxCell>
        <mxCell id="gzjGTb-9zkBEpq118PxR-46" style="edgeStyle=orthogonalEdgeStyle;rounded=0;orthogonalLoop=1;jettySize=auto;html=1;entryX=0;entryY=0.5;entryDx=0;entryDy=0;strokeWidth=2;startArrow=classic;startFill=1;" parent="1" source="gzjGTb-9zkBEpq118PxR-25" target="gzjGTb-9zkBEpq118PxR-38" edge="1">
          <mxGeometry relative="1" as="geometry" />
        </mxCell>
        <mxCell id="gzjGTb-9zkBEpq118PxR-25" value="&lt;font style=&quot;font-size: 24px;&quot;&gt;Debug Subsystem&lt;/font&gt;" style="rounded=0;whiteSpace=wrap;html=1;horizontal=1;verticalAlign=top;strokeWidth=2;fontSize=24;fontStyle=0;fillColor=#f5f5f5;fontColor=#333333;strokeColor=#666666;" parent="1" vertex="1">
          <mxGeometry x="-300" y="620" width="240" height="140" as="geometry" />
        </mxCell>
        <mxCell id="gzjGTb-9zkBEpq118PxR-36" style="edgeStyle=orthogonalEdgeStyle;rounded=0;orthogonalLoop=1;jettySize=auto;html=1;entryX=0;entryY=0;entryDx=0;entryDy=0;" parent="1" source="gzjGTb-9zkBEpq118PxR-26" target="gzjGTb-9zkBEpq118PxR-32" edge="1">
          <mxGeometry relative="1" as="geometry">
            <Array as="points">
              <mxPoint x="-147.5" y="705" />
              <mxPoint x="-147.5" y="705" />
            </Array>
          </mxGeometry>
        </mxCell>
        <mxCell id="gzjGTb-9zkBEpq118PxR-26" value="Microblaze&lt;div&gt;CPU&lt;/div&gt;" style="rounded=0;whiteSpace=wrap;html=1;fontSize=16;" parent="1" vertex="1">
          <mxGeometry x="-277.5" y="685" width="100" height="40" as="geometry" />
        </mxCell>
        <mxCell id="gzjGTb-9zkBEpq118PxR-35" value="" style="group" parent="1" vertex="1" connectable="0">
          <mxGeometry x="-142.5" y="675" width="60" height="60" as="geometry" />
        </mxCell>
        <mxCell id="gzjGTb-9zkBEpq118PxR-31" value="I$" style="rounded=0;whiteSpace=wrap;html=1;fontSize=16;" parent="gzjGTb-9zkBEpq118PxR-35" vertex="1">
          <mxGeometry width="60" height="30" as="geometry" />
        </mxCell>
        <mxCell id="gzjGTb-9zkBEpq118PxR-32" value="D$" style="rounded=0;whiteSpace=wrap;html=1;fontSize=16;" parent="gzjGTb-9zkBEpq118PxR-35" vertex="1">
          <mxGeometry y="30" width="60" height="30" as="geometry" />
        </mxCell>
        <mxCell id="gzjGTb-9zkBEpq118PxR-16" value="Video&lt;div&gt;DMA&lt;/div&gt;" style="rounded=0;whiteSpace=wrap;html=1;fontSize=16;" parent="1" vertex="1">
          <mxGeometry x="-280" y="520" width="100" height="50" as="geometry" />
        </mxCell>
        <mxCell id="gzjGTb-9zkBEpq118PxR-22" style="edgeStyle=orthogonalEdgeStyle;rounded=0;orthogonalLoop=1;jettySize=auto;html=1;entryX=0;entryY=0.5;entryDx=0;entryDy=0;" parent="1" source="gzjGTb-9zkBEpq118PxR-16" target="gzjGTb-9zkBEpq118PxR-20" edge="1">
          <mxGeometry relative="1" as="geometry" />
        </mxCell>
        <mxCell id="gzjGTb-9zkBEpq118PxR-47" style="edgeStyle=orthogonalEdgeStyle;rounded=0;orthogonalLoop=1;jettySize=auto;html=1;strokeWidth=2;startArrow=classic;startFill=1;entryX=-0.006;entryY=0.773;entryDx=0;entryDy=0;entryPerimeter=0;" parent="1" source="gzjGTb-9zkBEpq118PxR-37" target="gzjGTb-9zkBEpq118PxR-38" edge="1">
          <mxGeometry relative="1" as="geometry">
            <mxPoint x="90" y="840" as="targetPoint" />
          </mxGeometry>
        </mxCell>
        <mxCell id="gzjGTb-9zkBEpq118PxR-37" value="&lt;font style=&quot;font-size: 24px;&quot;&gt;Off-Chip Memory&lt;/font&gt;&lt;div&gt;&lt;font style=&quot;font-size: 24px;&quot;&gt;(DRAM)&lt;/font&gt;&lt;/div&gt;" style="rounded=0;whiteSpace=wrap;html=1;horizontal=1;verticalAlign=middle;strokeWidth=2;fontSize=24;fontStyle=0;fillColor=#f5f5f5;fontColor=#333333;strokeColor=#666666;" parent="1" vertex="1">
          <mxGeometry x="-300" y="790" width="280" height="100" as="geometry" />
        </mxCell>
        <mxCell id="gzjGTb-9zkBEpq118PxR-44" style="edgeStyle=orthogonalEdgeStyle;rounded=0;orthogonalLoop=1;jettySize=auto;html=1;exitX=0.75;exitY=0;exitDx=0;exitDy=0;entryX=0.75;entryY=1;entryDx=0;entryDy=0;strokeWidth=2;startArrow=classic;startFill=1;" parent="1" source="gzjGTb-9zkBEpq118PxR-38" target="gzjGTb-9zkBEpq118PxR-13" edge="1">
          <mxGeometry relative="1" as="geometry" />
        </mxCell>
        <mxCell id="gzjGTb-9zkBEpq118PxR-38" value="Memory&lt;div&gt;Intercon&lt;/div&gt;" style="rounded=0;whiteSpace=wrap;html=1;horizontal=1;verticalAlign=middle;strokeWidth=2;fontSize=24;fontStyle=0;fillColor=#f5f5f5;fontColor=#333333;strokeColor=#666666;" parent="1" vertex="1">
          <mxGeometry x="130" y="670" width="130" height="220" as="geometry" />
        </mxCell>
        <mxCell id="gzjGTb-9zkBEpq118PxR-41" style="rounded=0;orthogonalLoop=1;jettySize=auto;html=1;startArrow=classic;startFill=1;strokeWidth=2;" parent="1" source="gzjGTb-9zkBEpq118PxR-39" edge="1">
          <mxGeometry relative="1" as="geometry">
            <mxPoint x="165" y="550.0000000000001" as="targetPoint" />
          </mxGeometry>
        </mxCell>
        <mxCell id="gzjGTb-9zkBEpq118PxR-39" value="System&lt;div&gt;DMA&lt;/div&gt;" style="rounded=0;whiteSpace=wrap;html=1;fontSize=16;" parent="1" vertex="1">
          <mxGeometry x="130" y="590" width="70" height="40" as="geometry" />
        </mxCell>
        <mxCell id="gzjGTb-9zkBEpq118PxR-43" style="rounded=0;orthogonalLoop=1;jettySize=auto;html=1;startArrow=classic;startFill=1;entryX=0.5;entryY=1;entryDx=0;entryDy=0;strokeWidth=2;" parent="1" target="gzjGTb-9zkBEpq118PxR-39" edge="1">
          <mxGeometry relative="1" as="geometry">
            <mxPoint x="164.75" y="630.0000000000001" as="targetPoint" />
            <mxPoint x="164.75" y="670" as="sourcePoint" />
          </mxGeometry>
        </mxCell>
        <mxCell id="OuJlT18xT2WxrdzGmY0F-1" style="rounded=0;orthogonalLoop=1;jettySize=auto;html=1;entryX=0.052;entryY=1;entryDx=0;entryDy=0;entryPerimeter=0;exitX=1;exitY=0.25;exitDx=0;exitDy=0;strokeWidth=2;startArrow=classic;startFill=1;" edge="1" parent="1" source="gzjGTb-9zkBEpq118PxR-13" target="gzjGTb-9zkBEpq118PxR-49">
          <mxGeometry relative="1" as="geometry" />
        </mxCell>
        <mxCell id="OuJlT18xT2WxrdzGmY0F-2" style="edgeStyle=orthogonalEdgeStyle;rounded=0;orthogonalLoop=1;jettySize=auto;html=1;strokeWidth=2;startArrow=classic;startFill=1;exitX=1;exitY=0.25;exitDx=0;exitDy=0;" edge="1" parent="1">
          <mxGeometry relative="1" as="geometry">
            <mxPoint x="260" y="720" as="sourcePoint" />
            <mxPoint x="340" y="435" as="targetPoint" />
            <Array as="points">
              <mxPoint x="300" y="720" />
              <mxPoint x="300" y="435" />
              <mxPoint x="340" y="435" />
            </Array>
          </mxGeometry>
        </mxCell>
        <mxCell id="OuJlT18xT2WxrdzGmY0F-3" style="rounded=0;orthogonalLoop=1;jettySize=auto;html=1;strokeWidth=2;startArrow=classic;startFill=1;exitX=1;exitY=0.5;exitDx=0;exitDy=0;entryX=0.844;entryY=1;entryDx=0;entryDy=0;entryPerimeter=0;" edge="1" parent="1" source="gzjGTb-9zkBEpq118PxR-38" target="gzjGTb-9zkBEpq118PxR-49">
          <mxGeometry relative="1" as="geometry">
            <mxPoint x="260" y="830" as="sourcePoint" />
            <mxPoint x="340" y="830" as="targetPoint" />
          </mxGeometry>
        </mxCell>
        <mxCell id="OuJlT18xT2WxrdzGmY0F-20" value="" style="group" vertex="1" connectable="0" parent="1">
          <mxGeometry x="360" y="435" width="40" height="20" as="geometry" />
        </mxCell>
        <mxCell id="OuJlT18xT2WxrdzGmY0F-21" value="" style="group" vertex="1" connectable="0" parent="OuJlT18xT2WxrdzGmY0F-20">
          <mxGeometry width="40" height="20" as="geometry" />
        </mxCell>
        <mxCell id="OuJlT18xT2WxrdzGmY0F-22" value="" style="rounded=0;whiteSpace=wrap;html=1;" vertex="1" parent="OuJlT18xT2WxrdzGmY0F-21">
          <mxGeometry x="26.66666666666667" width="13.333333333333336" height="20" as="geometry" />
        </mxCell>
        <mxCell id="OuJlT18xT2WxrdzGmY0F-23" value="" style="rounded=0;whiteSpace=wrap;html=1;" vertex="1" parent="OuJlT18xT2WxrdzGmY0F-21">
          <mxGeometry width="13.333333333333336" height="20" as="geometry" />
        </mxCell>
        <mxCell id="OuJlT18xT2WxrdzGmY0F-24" value="" style="rounded=0;whiteSpace=wrap;html=1;" vertex="1" parent="OuJlT18xT2WxrdzGmY0F-21">
          <mxGeometry x="13.333333333333336" width="13.333333333333336" height="20" as="geometry" />
        </mxCell>
        <mxCell id="OuJlT18xT2WxrdzGmY0F-28" style="edgeStyle=orthogonalEdgeStyle;rounded=0;orthogonalLoop=1;jettySize=auto;html=1;entryX=0;entryY=0.5;entryDx=0;entryDy=0;" edge="1" parent="1" source="OuJlT18xT2WxrdzGmY0F-26" target="OuJlT18xT2WxrdzGmY0F-56">
          <mxGeometry relative="1" as="geometry">
            <mxPoint x="580" y="445" as="targetPoint" />
          </mxGeometry>
        </mxCell>
        <mxCell id="OuJlT18xT2WxrdzGmY0F-26" value="Vertex&lt;div&gt;Fetch&lt;/div&gt;" style="rounded=0;whiteSpace=wrap;html=1;fontSize=16;" vertex="1" parent="1">
          <mxGeometry x="430" y="420" width="100" height="50" as="geometry" />
        </mxCell>
        <mxCell id="OuJlT18xT2WxrdzGmY0F-27" value="Shader Interface" style="rounded=0;whiteSpace=wrap;html=1;fontSize=15;fillColor=#dae8fc;strokeColor=#6c8ebf;" vertex="1" parent="1">
          <mxGeometry x="650" y="420" width="100" height="50" as="geometry" />
        </mxCell>
        <mxCell id="OuJlT18xT2WxrdzGmY0F-29" style="edgeStyle=orthogonalEdgeStyle;rounded=0;orthogonalLoop=1;jettySize=auto;html=1;entryX=0.361;entryY=0.219;entryDx=0;entryDy=0;exitX=1;exitY=0.5;exitDx=0;exitDy=0;entryPerimeter=0;" edge="1" parent="1" source="OuJlT18xT2WxrdzGmY0F-55" target="OuJlT18xT2WxrdzGmY0F-70">
          <mxGeometry relative="1" as="geometry">
            <mxPoint x="640" y="445.0000000000002" as="sourcePoint" />
          </mxGeometry>
        </mxCell>
        <mxCell id="OuJlT18xT2WxrdzGmY0F-30" style="edgeStyle=orthogonalEdgeStyle;rounded=0;orthogonalLoop=1;jettySize=auto;html=1;entryX=0;entryY=0.5;entryDx=0;entryDy=0;" edge="1" parent="1" source="OuJlT18xT2WxrdzGmY0F-22" target="OuJlT18xT2WxrdzGmY0F-26">
          <mxGeometry relative="1" as="geometry" />
        </mxCell>
        <mxCell id="OuJlT18xT2WxrdzGmY0F-42" style="edgeStyle=orthogonalEdgeStyle;rounded=0;orthogonalLoop=1;jettySize=auto;html=1;entryX=0.5;entryY=0;entryDx=0;entryDy=0;exitX=0.5;exitY=1;exitDx=0;exitDy=0;" edge="1" parent="1" source="OuJlT18xT2WxrdzGmY0F-31" target="OuJlT18xT2WxrdzGmY0F-39">
          <mxGeometry relative="1" as="geometry" />
        </mxCell>
        <mxCell id="OuJlT18xT2WxrdzGmY0F-31" value="Primitive&lt;div style=&quot;font-size: 15px;&quot;&gt;Assembly&lt;/div&gt;" style="rounded=0;whiteSpace=wrap;html=1;fontSize=15;fillColor=#ffe6cc;strokeColor=#d79b00;" vertex="1" parent="1">
          <mxGeometry x="870" y="590" width="100" height="50" as="geometry" />
        </mxCell>
        <mxCell id="OuJlT18xT2WxrdzGmY0F-43" style="edgeStyle=orthogonalEdgeStyle;rounded=0;orthogonalLoop=1;jettySize=auto;html=1;entryX=1;entryY=0.5;entryDx=0;entryDy=0;exitX=0;exitY=0.5;exitDx=0;exitDy=0;" edge="1" parent="1" source="OuJlT18xT2WxrdzGmY0F-39" target="OuJlT18xT2WxrdzGmY0F-41">
          <mxGeometry relative="1" as="geometry" />
        </mxCell>
        <mxCell id="OuJlT18xT2WxrdzGmY0F-44" style="edgeStyle=orthogonalEdgeStyle;rounded=0;orthogonalLoop=1;jettySize=auto;html=1;entryX=1;entryY=0.5;entryDx=0;entryDy=0;exitX=0.5;exitY=1;exitDx=0;exitDy=0;" edge="1" parent="1" source="OuJlT18xT2WxrdzGmY0F-39" target="OuJlT18xT2WxrdzGmY0F-40">
          <mxGeometry relative="1" as="geometry" />
        </mxCell>
        <mxCell id="OuJlT18xT2WxrdzGmY0F-39" value="Triangle&lt;div&gt;Setup&lt;/div&gt;" style="rounded=0;whiteSpace=wrap;html=1;fontSize=15;fillColor=#ffe6cc;strokeColor=#d79b00;" vertex="1" parent="1">
          <mxGeometry x="870" y="680" width="100" height="50" as="geometry" />
        </mxCell>
        <mxCell id="OuJlT18xT2WxrdzGmY0F-40" value="Triangle Test" style="rounded=0;whiteSpace=wrap;html=1;fontSize=15;fillColor=#ffe6cc;strokeColor=#d79b00;" vertex="1" parent="1">
          <mxGeometry x="716.67" y="755" width="100" height="50" as="geometry" />
        </mxCell>
        <mxCell id="OuJlT18xT2WxrdzGmY0F-45" style="edgeStyle=orthogonalEdgeStyle;rounded=0;orthogonalLoop=1;jettySize=auto;html=1;entryX=0.5;entryY=0;entryDx=0;entryDy=0;exitX=0.5;exitY=1;exitDx=0;exitDy=0;" edge="1" parent="1" source="OuJlT18xT2WxrdzGmY0F-41" target="OuJlT18xT2WxrdzGmY0F-40">
          <mxGeometry relative="1" as="geometry" />
        </mxCell>
        <mxCell id="OuJlT18xT2WxrdzGmY0F-41" value="Triangle&lt;div style=&quot;font-size: 15px;&quot;&gt;Traversal&lt;/div&gt;" style="rounded=0;whiteSpace=wrap;html=1;fontSize=15;fillColor=#ffe6cc;strokeColor=#d79b00;" vertex="1" parent="1">
          <mxGeometry x="716.67" y="680" width="100" height="50" as="geometry" />
        </mxCell>
        <mxCell id="OuJlT18xT2WxrdzGmY0F-54" value="" style="group" vertex="1" connectable="0" parent="1">
          <mxGeometry x="560" y="435" width="40" height="20" as="geometry" />
        </mxCell>
        <mxCell id="OuJlT18xT2WxrdzGmY0F-55" value="" style="rounded=0;whiteSpace=wrap;html=1;" vertex="1" parent="OuJlT18xT2WxrdzGmY0F-54">
          <mxGeometry x="26.66666666666667" width="13.333333333333336" height="20" as="geometry" />
        </mxCell>
        <mxCell id="OuJlT18xT2WxrdzGmY0F-56" value="" style="rounded=0;whiteSpace=wrap;html=1;" vertex="1" parent="OuJlT18xT2WxrdzGmY0F-54">
          <mxGeometry width="13.333333333333336" height="20" as="geometry" />
        </mxCell>
        <mxCell id="OuJlT18xT2WxrdzGmY0F-57" value="" style="rounded=0;whiteSpace=wrap;html=1;" vertex="1" parent="OuJlT18xT2WxrdzGmY0F-54">
          <mxGeometry x="13.333333333333336" width="13.333333333333336" height="20" as="geometry" />
        </mxCell>
        <mxCell id="OuJlT18xT2WxrdzGmY0F-118" style="edgeStyle=orthogonalEdgeStyle;rounded=0;orthogonalLoop=1;jettySize=auto;html=1;entryX=0.5;entryY=0;entryDx=0;entryDy=0;" edge="1" parent="1" source="OuJlT18xT2WxrdzGmY0F-60" target="OuJlT18xT2WxrdzGmY0F-142">
          <mxGeometry relative="1" as="geometry">
            <mxPoint x="919.9966666666669" y="500.00333333333344" as="targetPoint" />
          </mxGeometry>
        </mxCell>
        <mxCell id="OuJlT18xT2WxrdzGmY0F-60" value="Viewport Transform" style="rounded=0;whiteSpace=wrap;html=1;fontSize=16;verticalAlign=top;" vertex="1" parent="1">
          <mxGeometry x="850" y="400" width="140" height="110" as="geometry" />
        </mxCell>
        <mxCell id="OuJlT18xT2WxrdzGmY0F-61" value="Shader Control" style="rounded=0;whiteSpace=wrap;html=1;fontSize=15;fillColor=#dae8fc;strokeColor=#6c8ebf;" vertex="1" parent="1">
          <mxGeometry x="650" y="480" width="100" height="50" as="geometry" />
        </mxCell>
        <mxCell id="OuJlT18xT2WxrdzGmY0F-62" value="Shader Core" style="rounded=0;whiteSpace=wrap;html=1;fontSize=15;fillColor=#dae8fc;strokeColor=#6c8ebf;" vertex="1" parent="1">
          <mxGeometry x="650" y="540" width="100" height="50" as="geometry" />
        </mxCell>
        <mxCell id="OuJlT18xT2WxrdzGmY0F-69" style="edgeStyle=orthogonalEdgeStyle;rounded=0;orthogonalLoop=1;jettySize=auto;html=1;entryX=0;entryY=0.25;entryDx=0;entryDy=0;exitX=0.997;exitY=0.626;exitDx=0;exitDy=0;exitPerimeter=0;startArrow=classic;startFill=1;" edge="1" parent="1" source="OuJlT18xT2WxrdzGmY0F-66" target="OuJlT18xT2WxrdzGmY0F-62">
          <mxGeometry relative="1" as="geometry" />
        </mxCell>
        <mxCell id="OuJlT18xT2WxrdzGmY0F-66" value="I$" style="rounded=0;whiteSpace=wrap;html=1;fontSize=15;fillColor=#dae8fc;strokeColor=#6c8ebf;" vertex="1" parent="1">
          <mxGeometry x="575" y="540" width="30" height="20" as="geometry" />
        </mxCell>
        <mxCell id="OuJlT18xT2WxrdzGmY0F-68" style="edgeStyle=orthogonalEdgeStyle;rounded=0;orthogonalLoop=1;jettySize=auto;html=1;entryX=0;entryY=0.75;entryDx=0;entryDy=0;exitX=1.005;exitY=0.37;exitDx=0;exitDy=0;exitPerimeter=0;startArrow=classic;startFill=1;endArrow=none;endFill=0;" edge="1" parent="1" source="OuJlT18xT2WxrdzGmY0F-67" target="OuJlT18xT2WxrdzGmY0F-62">
          <mxGeometry relative="1" as="geometry" />
        </mxCell>
        <mxCell id="OuJlT18xT2WxrdzGmY0F-67" value="D$" style="rounded=0;whiteSpace=wrap;html=1;fontSize=15;fillColor=#dae8fc;strokeColor=#6c8ebf;" vertex="1" parent="1">
          <mxGeometry x="575" y="570" width="30" height="20" as="geometry" />
        </mxCell>
        <mxCell id="OuJlT18xT2WxrdzGmY0F-98" value="&lt;div&gt;&lt;span style=&quot;background-color: initial;&quot;&gt;Fragment Shader&lt;/span&gt;&lt;br&gt;&lt;/div&gt;" style="rounded=0;whiteSpace=wrap;html=1;fontSize=16;verticalAlign=bottom;" vertex="1" parent="1">
          <mxGeometry x="550" y="680" width="120" height="120" as="geometry" />
        </mxCell>
        <mxCell id="OuJlT18xT2WxrdzGmY0F-104" style="rounded=0;orthogonalLoop=1;jettySize=auto;html=1;entryX=1;entryY=0.5;entryDx=0;entryDy=0;exitX=0;exitY=0.678;exitDx=0;exitDy=0;exitPerimeter=0;" edge="1" parent="1" source="OuJlT18xT2WxrdzGmY0F-50" target="OuJlT18xT2WxrdzGmY0F-98">
          <mxGeometry relative="1" as="geometry">
            <mxPoint x="700" y="770" as="sourcePoint" />
            <mxPoint x="660" y="770" as="targetPoint" />
          </mxGeometry>
        </mxCell>
        <mxCell id="OuJlT18xT2WxrdzGmY0F-107" value="Alpha&lt;div style=&quot;font-size: 15px;&quot;&gt;Blend&lt;/div&gt;" style="rounded=0;whiteSpace=wrap;html=1;fontSize=15;fillColor=#fff2cc;strokeColor=#d6b656;" vertex="1" parent="1">
          <mxGeometry x="400" y="670" width="100" height="50" as="geometry" />
        </mxCell>
        <mxCell id="OuJlT18xT2WxrdzGmY0F-108" value="Depth&lt;div style=&quot;font-size: 15px;&quot;&gt;Test&lt;/div&gt;" style="rounded=0;whiteSpace=wrap;html=1;fontSize=15;fillColor=#fff2cc;strokeColor=#d6b656;" vertex="1" parent="1">
          <mxGeometry x="400" y="740" width="100" height="50" as="geometry" />
        </mxCell>
        <mxCell id="OuJlT18xT2WxrdzGmY0F-113" style="edgeStyle=orthogonalEdgeStyle;rounded=0;orthogonalLoop=1;jettySize=auto;html=1;entryX=0.001;entryY=0.408;entryDx=0;entryDy=0;exitX=1;exitY=0.5;exitDx=0;exitDy=0;entryPerimeter=0;" edge="1" parent="1" source="OuJlT18xT2WxrdzGmY0F-115" target="OuJlT18xT2WxrdzGmY0F-60">
          <mxGeometry relative="1" as="geometry">
            <mxPoint x="870" y="440.0000000000002" as="sourcePoint" />
            <mxPoint x="869" y="441" as="targetPoint" />
          </mxGeometry>
        </mxCell>
        <mxCell id="OuJlT18xT2WxrdzGmY0F-114" value="" style="group" vertex="1" connectable="0" parent="1">
          <mxGeometry x="790" y="435" width="40" height="20" as="geometry" />
        </mxCell>
        <mxCell id="OuJlT18xT2WxrdzGmY0F-115" value="" style="rounded=0;whiteSpace=wrap;html=1;" vertex="1" parent="OuJlT18xT2WxrdzGmY0F-114">
          <mxGeometry x="26.66666666666667" width="13.333333333333336" height="20" as="geometry" />
        </mxCell>
        <mxCell id="OuJlT18xT2WxrdzGmY0F-116" value="" style="rounded=0;whiteSpace=wrap;html=1;" vertex="1" parent="OuJlT18xT2WxrdzGmY0F-114">
          <mxGeometry width="13.333333333333336" height="20" as="geometry" />
        </mxCell>
        <mxCell id="OuJlT18xT2WxrdzGmY0F-117" value="" style="rounded=0;whiteSpace=wrap;html=1;" vertex="1" parent="OuJlT18xT2WxrdzGmY0F-114">
          <mxGeometry x="13.333333333333336" width="13.333333333333336" height="20" as="geometry" />
        </mxCell>
        <mxCell id="OuJlT18xT2WxrdzGmY0F-121" style="edgeStyle=orthogonalEdgeStyle;rounded=0;orthogonalLoop=1;jettySize=auto;html=1;entryX=0.758;entryY=0.001;entryDx=0;entryDy=0;entryPerimeter=0;" edge="1" parent="1" target="OuJlT18xT2WxrdzGmY0F-50">
          <mxGeometry relative="1" as="geometry">
            <mxPoint x="920" y="540.0066666666668" as="sourcePoint" />
            <mxPoint x="920" y="580" as="targetPoint" />
          </mxGeometry>
        </mxCell>
        <mxCell id="OuJlT18xT2WxrdzGmY0F-125" style="rounded=0;orthogonalLoop=1;jettySize=auto;html=1;exitX=0;exitY=0.5;exitDx=0;exitDy=0;entryX=1;entryY=0.5;entryDx=0;entryDy=0;" edge="1" parent="1" source="OuJlT18xT2WxrdzGmY0F-98" target="OuJlT18xT2WxrdzGmY0F-111">
          <mxGeometry relative="1" as="geometry">
            <mxPoint x="560" y="769.8" as="sourcePoint" />
            <mxPoint x="540" y="770" as="targetPoint" />
          </mxGeometry>
        </mxCell>
        <mxCell id="OuJlT18xT2WxrdzGmY0F-126" value="" style="endArrow=classic;startArrow=classic;html=1;rounded=0;entryX=0;entryY=0.5;entryDx=0;entryDy=0;edgeStyle=orthogonalEdgeStyle;exitX=0.844;exitY=0.999;exitDx=0;exitDy=0;exitPerimeter=0;" edge="1" parent="1" source="gzjGTb-9zkBEpq118PxR-49" target="OuJlT18xT2WxrdzGmY0F-111">
          <mxGeometry width="50" height="50" relative="1" as="geometry">
            <mxPoint x="360" y="820" as="sourcePoint" />
            <mxPoint x="420" y="840" as="targetPoint" />
            <Array as="points">
              <mxPoint x="360" y="780" />
              <mxPoint x="360" y="740" />
            </Array>
          </mxGeometry>
        </mxCell>
        <mxCell id="OuJlT18xT2WxrdzGmY0F-135" value="Vertex&lt;div style=&quot;font-size: 15px;&quot;&gt;Shader&lt;/div&gt;" style="rounded=0;whiteSpace=wrap;html=1;fontSize=15;fillColor=#dae8fc;strokeColor=#6c8ebf;" vertex="1" parent="1">
          <mxGeometry x="570" y="700" width="80" height="50" as="geometry" />
        </mxCell>
        <mxCell id="OuJlT18xT2WxrdzGmY0F-139" value="" style="group" vertex="1" connectable="0" parent="1">
          <mxGeometry x="900" y="530" width="40" height="20" as="geometry" />
        </mxCell>
        <mxCell id="OuJlT18xT2WxrdzGmY0F-140" value="" style="rounded=0;whiteSpace=wrap;html=1;" vertex="1" parent="OuJlT18xT2WxrdzGmY0F-139">
          <mxGeometry x="26.66666666666667" width="13.333333333333336" height="20" as="geometry" />
        </mxCell>
        <mxCell id="OuJlT18xT2WxrdzGmY0F-141" value="" style="rounded=0;whiteSpace=wrap;html=1;" vertex="1" parent="OuJlT18xT2WxrdzGmY0F-139">
          <mxGeometry width="13.333333333333336" height="20" as="geometry" />
        </mxCell>
        <mxCell id="OuJlT18xT2WxrdzGmY0F-142" value="" style="rounded=0;whiteSpace=wrap;html=1;" vertex="1" parent="OuJlT18xT2WxrdzGmY0F-139">
          <mxGeometry x="13.333333333333336" width="13.333333333333336" height="20" as="geometry" />
        </mxCell>
        <mxCell id="OuJlT18xT2WxrdzGmY0F-143" value="Shader Interface" style="rounded=0;whiteSpace=wrap;html=1;fontSize=15;fillColor=#dae8fc;strokeColor=#6c8ebf;" vertex="1" parent="1">
          <mxGeometry x="870" y="450" width="100" height="50" as="geometry" />
        </mxCell>
      </root>
    </mxGraphModel>
  </diagram>
</mxfile>
